<svg xmlns="http://www.w3.org/2000/svg" width="56" height="54" version="1.0" viewBox="0 0 251 251"><g transform="translate(1507.607 -406.876) scale(.59541)"><path d="M-2531.989 683.354h421.558v421.558h-421.558z" style="fill:none"/><path d="M-2330.27 692.266c-111.49 0-201.84 90.358-201.84 201.84 0 111.49 90.359 201.87 201.84 201.87 5.396 0 10.743-.209 16.032-.625-103.99-8.17-185.84-95.16-185.84-201.25s81.852-193.05 185.84-201.22a204.671 204.671 0 0 0-16.031-.625v.01z" style="fill:#d5b04f"/><path d="M-2359.37 694.356a200.479 200.479 0 0 0-37.374 9.125c8.546.506 18.737.808 29.719.844a200.398 200.398 0 0 1 34.375-9.125c-7.752-.464-16.87-.761-26.72-.844zm-37.186 23.125c-12.367 0-23.775.352-33.125.938a201.744 201.744 0 0 0-11.688 7.156c7.4.821 17.678 1.43 29.5 1.719a201.709 201.709 0 0 1 15.875-9.813h-.563zm-35.313 23.188c-11.691.105-22.318.53-30.844 1.157a203.318 203.318 0 0 0-7.625 6.968c7.635.823 18.219 1.42 30.312 1.688a202.824 202.824 0 0 1 10.688-9.813c-.842.004-1.7-.007-2.532 0zm-24.312 23.125c-10.896.097-20.88.47-29.094 1.032-2.036 2.438-3.986 4.935-5.907 7.468 8.19.735 18.93 1.254 30.97 1.438 2.522-3.388 5.118-6.717 7.843-9.938-1.276-.004-2.56-.01-3.812 0zm-13.094 23.125c-12.21.024-23.452.376-32.625.97a201.403 201.403 0 0 0-4.563 7.718c8.502.68 19.31 1.15 31.312 1.281a201.415 201.415 0 0 1 5.875-9.969zm-18.656 23.156c-9.434 0-18.315.208-26.156.563-1.304 2.867-2.516 5.781-3.688 8.719 8.693.469 18.89.719 29.844.719.632 0 1.248.002 1.875 0a200.424 200.424 0 0 1 4.25-9.97 655.14 655.14 0 0 0-6.125-.03zm-14.72 23.156c-7.13 0-13.921.135-20.218.344-.953 3.036-1.814 6.124-2.625 9.219 7.003.268 14.716.438 22.844.438 3.091 0 6.104-.021 9.062-.063a200.018 200.018 0 0 1 2.844-9.844 642.7 642.7 0 0 0-11.906-.093zm-17.624 23.156c-2.858.026-5.595.095-8.313.157a200.707 200.707 0 0 0-1.562 9.656 628.681 628.681 0 0 0 32-.031c.443-3.202.97-6.38 1.562-9.532a621.182 621.182 0 0 0-17.875-.25c-1.97 0-3.893-.017-5.812 0zm5.812 23.125c-5.97 0-11.716.07-17.125.22-.222 3.161-.362 6.33-.437 9.53 5.538.157 11.428.25 17.562.25 5.01 0 9.836-.05 14.469-.156.075-3.254.21-6.473.437-9.687a632.594 632.594 0 0 0-14.906-.157zm0 23.156c-6.087 0-11.936.096-17.438.25.138 3.198.34 6.374.625 9.532a625.96 625.96 0 0 0 16.812.218c5.292 0 10.385-.069 15.25-.187-.288-3.196-.518-6.42-.656-9.656-4.67-.108-9.539-.157-14.594-.157h.001zm0 23.156c-5.247 0-10.299.072-15.125.188a201.177 201.177 0 0 0 1.781 9.687c4.29.09 8.74.125 13.344.125 6.557 0 12.821-.103 18.688-.28-.655-3.142-1.273-6.308-1.78-9.5a626.233 626.233 0 0 0-16.907-.22zm-5.812 23.156c-1.461.013-2.824.04-4.25.063.94 3.332 1.957 6.647 3.062 9.906 2.297.025 4.627.031 7 .031 8.94 0 17.368-.179 24.906-.5a199.526 199.526 0 0 1-2.844-9.093c-6.792-.25-14.24-.407-22.062-.407-1.97 0-3.893-.017-5.812 0zm22.03 23.125c-6.344 0-12.422.083-18.124.25a201.51 201.51 0 0 0 4.312 9.594c4.433.097 9.039.157 13.812.157 6.369 0 12.465-.082 18.188-.25a200.83 200.83 0 0 1-4.312-9.594 632.342 632.342 0 0 0-13.875-.157zm5.907 23.156c-4.324 0-8.513.046-12.562.125 1.941 3.342 4 6.628 6.125 9.844 2.114.021 4.26.031 6.437.031 9.089 0 17.653-.2 25.281-.53a201.772 201.772 0 0 1-5.687-9.157 612.835 612.835 0 0 0-19.594-.312zm26.53 23.157c-8.25 0-16.07.16-23.155.437a203.075 203.075 0 0 0 7.875 9.375 628.817 628.817 0 0 0 32-.031 202.728 202.728 0 0 1-8.125-9.72c-2.81-.036-5.665-.062-8.594-.062zm14.72 23.125c-5.844 0-11.472.075-16.781.218a202.999 202.999 0 0 0 11.25 9.75c1.82.015 3.666.031 5.531.031 9.322 0 18.098-.184 25.875-.53a203.357 203.357 0 0 1-10.688-9.282 627.95 627.95 0 0 0-15.188-.188zm36.875 23.156c-8.3 0-16.162.158-23.281.437a201.508 201.508 0 0 0 16.906 9.531c2.094.02 4.22.031 6.375.031 8.879 0 17.254-.183 24.75-.5a202.058 202.058 0 0 1-16.594-9.437 644.44 644.44 0 0 0-8.156-.063zm49.344 23.155c-7.424 0-14.493.15-21 .375 17.664 5.052 36.338 7.75 55.625 7.75 4.52 0 8.99-.145 13.438-.437.621-.085 1.218-.162 1.781-.25a201.183 201.183 0 0 1-39.688-7.344 641.777 641.777 0 0 0-10.156-.094z" style="fill:#c89c31;fill-rule:evenodd"/><path d="M-2110.523 894.122c0 111.486-90.378 201.864-201.864 201.864-111.485 0-201.863-90.378-201.863-201.864 0-111.485 90.378-201.863 201.863-201.863 111.486 0 201.864 90.378 201.864 201.863z" style="fill:#eed175"/><path d="M-2115.622 895.607c0 108.636-88.068 196.705-196.704 196.705-108.636 0-196.705-88.069-196.705-196.705 0-108.636 88.069-196.704 196.705-196.704 108.636 0 196.704 88.068 196.704 196.704z" style="fill:#c89c31"/><path d="M-2121.963 896.062c0 105.165-85.255 190.42-190.42 190.42-105.166 0-190.421-85.255-190.421-190.42 0-105.166 85.255-190.42 190.42-190.42 105.166 0 190.421 85.254 190.421 190.42z" style="fill:#ebc859"/><path d="M-2450.77 763.596c-72.226 76.441-70.873 196.55 5.568 268.78 20.645 19.507 42.898 35.916 70.193 43.216-16.765-8.685-31.017-20.617-45.428-34.234-82.925-78.354-86.776-208.93-8.62-291.64 7.545-7.984 15.986-13.79 24.418-20.298-16.558 9.23-32.42 19.667-46.13 34.176z" style="fill:#d2aa48"/><path d="M-2196.87 1048.006c83.733-63.63 100.05-183.09 36.419-266.82-17.185-22.614-38.472-40.285-61.998-52.815a207.25 207.25 0 0 1 40.977 40.648c69.029 90.835 51.523 220.29-39.083 289.14a206.9 206.9 0 0 1-27.233 17.516c17.842-6.404 35.026-15.587 50.92-27.667l-.001-.002z" style="fill:#f7e587"/><path d="M-2305.57 706.396c-35.968 0-68.668 3.529-100.87 24.436-50.232 32.618-79.042 96.388-79.042 161.94 0 15.828 1.944 31.197 5.575 45.865 34.848 43.715 77.713 49.303 125.35 49.303 99.804 0 178.62-82.519 178.62-185.01 0-15.806-2.502-30.289-6.123-44.939-32.288-30.956-75.864-51.597-123.52-51.597l.01.002z" style="opacity:.5;fill:#f7e587"/><rect width="41.099" height="39.828" x="-2370.437" y="977.201" ry="0" style="opacity:1;fill:#d2aa48;fill-opacity:1;fill-rule:evenodd;stroke:none;stroke-width:1;stroke-linecap:butt;stroke-linejoin:round;stroke-miterlimit:4;stroke-dasharray:none;stroke-opacity:1"/><path d="M-2397.298 804.413h94.438c18.694 0 32.607.69 41.74 2.07 9.24 1.288 17.458 4.047 24.657 8.278 7.305 4.23 13.376 9.887 18.21 16.97 4.835 6.99 7.252 14.854 7.253 23.591 0 9.474-3.009 18.166-9.025 26.076-5.91 7.91-13.967 13.842-24.174 17.797 14.397 3.587 25.463 9.704 33.199 18.35 7.735 8.645 11.603 18.809 11.603 30.49 0 9.197-2.525 18.165-7.574 26.903-4.943 8.645-11.765 15.59-20.467 20.832-8.596 5.15-19.232 8.324-31.91 9.52-7.95.736-27.128 1.196-57.533 1.38h-80.417V804.412m47.702 33.664v46.77h31.265c18.587 0 30.136-.23 34.649-.69 8.165-.828 14.557-3.22 19.177-7.174 4.727-4.047 7.091-9.336 7.091-15.866 0-6.254-2.041-11.313-6.124-15.176-3.975-3.955-9.938-6.346-17.888-7.174-4.728-.46-18.318-.69-40.773-.69h-27.397m0 80.433v54.082h44.157c17.19 0 28.095-.414 32.715-1.241 7.091-1.104 12.839-3.771 17.244-8.002 4.512-4.323 6.769-10.072 6.769-17.246 0-6.07-1.72-11.221-5.157-15.452-3.438-4.23-8.434-7.312-14.988-9.244-6.446-1.931-20.52-2.897-42.223-2.897h-38.517" style="font-size:305.37878418px;font-style:normal;font-variant:normal;font-weight:400;font-stretch:normal;fill:#d2aa48;fill-opacity:1;stroke:none;stroke-width:1px;stroke-linecap:butt;stroke-linejoin:miter;stroke-opacity:1;font-family:Silom;-inkscape-font-specification:Silom"/><rect width="39.501" height="35.637" x="-2367.923" y="782.319" ry="0" style="opacity:1;fill:#d2aa48;fill-opacity:1;fill-rule:evenodd;stroke:none;stroke-width:1;stroke-linecap:butt;stroke-linejoin:round;stroke-miterlimit:4;stroke-dasharray:none;stroke-opacity:1"/><rect width="35.637" height="39.93" x="-2318.117" y="781.89" ry="0" style="opacity:1;fill:#d2aa48;fill-opacity:1;fill-rule:evenodd;stroke:none;stroke-width:1;stroke-linecap:butt;stroke-linejoin:round;stroke-miterlimit:4;stroke-dasharray:none;stroke-opacity:1"/><rect width="37.767" height="41.528" x="-2320.632" y="976.772" ry="0" style="opacity:1;fill:#d2aa48;fill-opacity:1;fill-rule:evenodd;stroke:none;stroke-width:1;stroke-linecap:butt;stroke-linejoin:round;stroke-miterlimit:4;stroke-dasharray:none;stroke-opacity:1"/><path d="M-2401.83 797.615h94.438c18.694 0 32.607.69 41.74 2.07 9.239 1.287 17.458 4.047 24.656 8.277 7.306 4.231 13.376 9.888 18.211 16.97 4.835 6.99 7.252 14.854 7.252 23.592 0 9.474-3.008 18.165-9.024 26.075-5.91 7.91-13.968 13.843-24.174 17.798 14.396 3.587 25.463 9.703 33.198 18.349 7.736 8.646 11.603 18.81 11.604 30.49 0 9.198-2.525 18.165-7.575 26.903-4.942 8.646-11.765 15.59-20.467 20.833-8.595 5.15-19.231 8.324-31.909 9.52-7.95.735-27.128 1.195-57.533 1.379h-80.418V797.615m47.703 33.663v46.77h31.265c18.586 0 30.136-.23 34.648-.69 8.166-.827 14.558-3.219 19.178-7.174 4.727-4.047 7.09-9.335 7.09-15.866 0-6.254-2.04-11.313-6.123-15.176-3.975-3.955-9.938-6.346-17.889-7.174-4.727-.46-18.318-.69-40.772-.69h-27.397m0 80.434v54.082h44.157c17.19 0 28.095-.414 32.715-1.242 7.09-1.104 12.839-3.771 17.244-8.002 4.512-4.323 6.768-10.071 6.769-17.245 0-6.07-1.72-11.222-5.158-15.453-3.438-4.23-8.434-7.312-14.987-9.243-6.447-1.932-20.521-2.897-42.223-2.897h-38.517" style="font-size:305.37878418px;font-style:normal;font-variant:normal;font-weight:400;font-stretch:normal;fill:#f7e587;fill-opacity:1;stroke:none;stroke-width:1px;stroke-linecap:butt;stroke-linejoin:miter;stroke-opacity:1;font-family:Silom;-inkscape-font-specification:Silom"/><rect width="39.501" height="35.637" x="-2370.189" y="780.053" ry="0" style="opacity:1;fill:#f7e587;fill-opacity:1;fill-rule:evenodd;stroke:none;stroke-width:1;stroke-linecap:butt;stroke-linejoin:round;stroke-miterlimit:4;stroke-dasharray:none;stroke-opacity:1"/><rect width="35.637" height="39.93" x="-2320.383" y="779.624" ry="0" style="opacity:1;fill:#f7e587;fill-opacity:1;fill-rule:evenodd;stroke:none;stroke-width:1;stroke-linecap:butt;stroke-linejoin:round;stroke-miterlimit:4;stroke-dasharray:none;stroke-opacity:1"/><rect width="39.501" height="38.194" x="-2372.703" y="974.935" ry="0" style="opacity:1;fill:#f7e587;fill-opacity:1;fill-rule:evenodd;stroke:none;stroke-width:1;stroke-linecap:butt;stroke-linejoin:round;stroke-miterlimit:4;stroke-dasharray:none;stroke-opacity:1"/><rect width="35.637" height="39.078" x="-2322.898" y="974.506" ry="0" style="opacity:1;fill:#f7e587;fill-opacity:1;fill-rule:evenodd;stroke:none;stroke-width:1;stroke-linecap:butt;stroke-linejoin:round;stroke-miterlimit:4;stroke-dasharray:none;stroke-opacity:1"/><path d="M-2213.849 945.491c.416 4.293-.627 8.45-1.924 12.498-1.42 4.603-3.67 8.839-6.254 12.878-2.3 3.33-5.333 6.009-8.543 8.426a55.639 55.639 0 0 1-11.978 6.44c-5.147 1.916-10.475 3.258-15.78 4.651l-.877-7.447c5.025-1.211 10.036-2.53 14.817-4.53 2.931-1.284 5.784-2.766 8.452-4.54 2.625-1.874 5.126-3.927 7.157-6.455 2.372-3.463 4.43-7.12 5.707-11.141 1.018-3.056 2.012-6.234 1.443-9.49l7.78-1.29zM-2221.848 840.404c.078 2.275.256 4.545.34 6.82.152 2.963-.216 5.914-.668 8.836-.296 2.757-1.251 5.072-2.731 7.386-2.115 2.626-4.68 4.841-7.068 7.208-1.865 2.052-3.718 4.111-5.798 5.948-1.03.874-2.067 1.763-3.245 2.435l-.481.362-5.643-5.481.483-.38c1.013-.833 2.202-1.37 3.188-2.247 2.09-1.452 3.716-3.458 5.44-5.302 2.088-2.09 4.237-4.116 6.299-6.233 1.08-1.29 1.636-2.776 1.852-4.447.448-2.44.824-4.929.675-7.415-.093-2.365-.216-4.73-.532-7.076l7.89-.414z" style="opacity:1;fill:#f1e3ac;fill-opacity:1;fill-rule:evenodd;stroke:none;stroke-width:1;stroke-linecap:butt;stroke-linejoin:round;stroke-miterlimit:4;stroke-dasharray:none;stroke-opacity:1"/></g></svg>